<?xml version="1.0" encoding="UTF-8" standalone="no"?>
<!-- Generator: Adobe Illustrator 15.0.0, SVG Export Plug-In . SVG Version: 6.00 Build 0)  -->

<svg
   xmlns:dc="http://purl.org/dc/elements/1.1/"
   xmlns:cc="http://creativecommons.org/ns#"
   xmlns:rdf="http://www.w3.org/1999/02/22-rdf-syntax-ns#"
   xmlns:svg="http://www.w3.org/2000/svg"
   xmlns="http://www.w3.org/2000/svg"
   xmlns:xlink="http://www.w3.org/1999/xlink"
   xmlns:sodipodi="http://sodipodi.sourceforge.net/DTD/sodipodi-0.dtd"
   xmlns:inkscape="http://www.inkscape.org/namespaces/inkscape"
   version="1.0"
   id="Layer_1"
   x="0px"
   y="0px"
   width="214.535px"
   height="216.86px"
   viewBox="0 0 214.535 216.86"
   enable-background="new 0 0 214.535 216.86"
   xml:space="preserve"
   inkscape:version="0.48.1 "
   sodipodi:docname="aplplay.svg"><metadata
   id="metadata3151"><rdf:RDF><cc:Work
       rdf:about=""><dc:format>image/svg+xml</dc:format><dc:type
         rdf:resource="http://purl.org/dc/dcmitype/StillImage" /><dc:title></dc:title></cc:Work></rdf:RDF></metadata><defs
   id="defs3149"><linearGradient
     id="SVGID_1_"
     gradientUnits="userSpaceOnUse"
     x1="-91.260696"
     y1="196.87109"
     x2="304.8989"
     y2="196.87109"
     gradientTransform="matrix(0.0948,0.9955,-1.0964,0.1044,393.9542,85.9372)"><stop
       offset="0"
       style="stop-color:#FFFFFF;stop-opacity:0"
       id="stop3175" /><stop
       offset="0.5152"
       style="stop-color:#FFFFFF"
       id="stop3177" /><stop
       offset="1"
       style="stop-color:#FFFFFF;stop-opacity:0"
       id="stop3179" /></linearGradient><linearGradient
     y2="196.87109"
     x2="304.8989"
     y1="196.87109"
     x1="-91.260696"
     gradientTransform="matrix(0.0948,0.9955,-1.0964,0.1044,393.9542,85.9372)"
     gradientUnits="userSpaceOnUse"
     id="linearGradient3244"
     xlink:href="#SVGID_1_"
     inkscape:collect="always" /><linearGradient
     x1="200.5"
     y1="437.36218"
     x2="346.5"
     y2="583.36218"
     id="linearGradient22177"
     xlink:href="#linearGradient8409"
     gradientUnits="userSpaceOnUse" /><linearGradient
     id="linearGradient8409"><stop
       style="stop-color:white;stop-opacity:0.65934068"
       offset="0"
       id="stop8411" /><stop
       style="stop-color:white;stop-opacity:0"
       offset="1"
       id="stop8413" /></linearGradient></defs><sodipodi:namedview
   pagecolor="#ffffff"
   bordercolor="#666666"
   borderopacity="1"
   objecttolerance="10"
   gridtolerance="10"
   guidetolerance="10"
   inkscape:pageopacity="0"
   inkscape:pageshadow="2"
   inkscape:window-width="1280"
   inkscape:window-height="962"
   id="namedview3147"
   showgrid="false"
   inkscape:zoom="1.2035415"
   inkscape:cx="107.2675"
   inkscape:cy="-57.746245"
   inkscape:window-x="0"
   inkscape:window-y="0"
   inkscape:window-maximized="1"
   inkscape:current-layer="Layer_1" />
<g
   id="g3070">
	
		<linearGradient
   id="path4791_1_"
   gradientUnits="userSpaceOnUse"
   x1="-205.5283"
   y1="382.021"
   x2="-133.6455"
   y2="382.021"
   gradientTransform="matrix(2.7333 0 0 2.5714 571.769 -818.8088)">
		<stop
   offset="0"
   style="stop-color:#729FCF"
   id="stop3073" />
		<stop
   offset="1"
   style="stop-color:#204A87"
   id="stop3075" />
	</linearGradient>
	<path
   id="path4791"
   d="M108.239,119.563c-54.256,0-98.24,11.251-98.24,25.121v37.679   c0,13.87,43.983,25.121,98.24,25.121c54.254,0,98.238-11.251,98.238-25.121v-37.679   C206.473,130.814,162.493,119.563,108.239,119.563z"
   fill="url(#path4791_1_)" />
	
		<linearGradient
   id="path4822_1_"
   gradientUnits="userSpaceOnUse"
   x1="212.0439"
   y1="774.6938"
   x2="408.5234"
   y2="774.6938"
   gradientTransform="matrix(1 0 0 1 -202.04 -601.4414)">
		<stop
   offset="0"
   style="stop-color:#CBDBED"
   id="stop3079" />
		<stop
   offset="1"
   style="stop-color:#204A87"
   id="stop3081" />
	</linearGradient>
	<path
   id="path4822"
   nodetypes="cccscccsc"
   d="M10.75,139.066   c-0.496,1.025-0.746,2.146-0.746,3.204v39.987c0,13.879,43.983,25.183,98.239,25.183c54.258,0,98.24-11.304,98.24-25.183V142.27   c0-1.068-0.253-2.179-0.749-3.204c-6.041,12.391-47.393,21.976-97.491,21.976C58.146,161.042,16.794,151.458,10.75,139.066z"
   fill="url(#path4822_1_)" />
	
		<linearGradient
   id="path4803_1_"
   gradientUnits="userSpaceOnUse"
   x1="214.4404"
   y1="763.9253"
   x2="406.127"
   y2="763.9253"
   gradientTransform="matrix(1 0 0 1 -202.04 -600.4414)">
		<stop
   offset="0"
   style="stop-color:#FFFFFF;stop-opacity:0.6"
   id="stop3085" />
		<stop
   offset="1"
   style="stop-color:#FFFFFF;stop-opacity:0.2078"
   id="stop3087" />
	</linearGradient>
	<path
   id="path4803"
   nodetypes="cssccsssssccssccssccsssssccssc"
   d="M108.243,121.972   c-26.951,0-51.26,2.857-68.739,7.326c-8.736,2.237-15.886,4.679-20.515,7.478c-4.628,2.796-6.589,5.667-6.589,7.938v37.544   c0,2.271,1.96,5.143,6.589,7.938c4.628,2.799,11.779,5.24,20.515,7.479c17.475,4.469,41.789,7.325,68.739,7.325   c26.946,0,51.264-2.856,68.739-7.325c8.735-2.238,15.887-4.68,20.517-7.479c4.627-2.795,6.588-5.667,6.588-7.938v-37.544   c0-2.271-1.961-5.142-6.588-7.938c-4.63-2.799-11.781-5.241-20.517-7.478C159.507,124.829,135.189,121.972,108.243,121.972z    M108.243,126.856c26.549,0,50.548,2.375,67.39,6.715c8.424,2.166,14.939,4.626,18.874,7.02c3.937,2.405,4.793,4.103,4.793,3.973   v37.851c0-0.129-0.866,1.569-4.793,3.973c-3.926,2.394-10.45,4.846-18.874,7.021c-16.842,4.342-40.836,6.716-67.39,6.716   s-50.547-2.374-67.393-6.716c-8.418-2.165-14.937-4.627-18.871-7.021c-3.933-2.403-4.792-4.102-4.792-3.973v-37.851   c0,0.13,0.858-1.568,4.792-3.973c3.934-2.394,10.448-4.846,18.871-7.02C57.696,129.231,81.695,126.856,108.243,126.856z"
   fill="url(#path4803_1_)" />
	<path
   id="path4721"
   d="M108.239,119.563c-54.256,0-98.24,11.251-98.24,25.121   v37.679c0,13.87,43.983,25.121,98.24,25.121c54.254,0,98.238-11.251,98.238-25.121v-37.679   C206.473,130.814,162.493,119.563,108.239,119.563z"
   stroke-width="0.3772"
   stroke="#193965"
   fill="none" />
	
		<linearGradient
   id="path4831_1_"
   gradientUnits="userSpaceOnUse"
   x1="219.2324"
   y1="764.0659"
   x2="310.2837"
   y2="764.0659"
   gradientTransform="matrix(1 0 0 1 -202.04 -608.4414)">
		<stop
   offset="0"
   style="stop-color:#FFFFFF;stop-opacity:0.8"
   id="stop3092" />
		<stop
   offset="1"
   style="stop-color:#FFFFFF;stop-opacity:0"
   id="stop3094" />
	</linearGradient>
	<path
   id="path4831"
   nodetypes="ccsccsc"
   d="M17.192,145.323v4.885   c14.615,9.181,49.887,15.721,91.051,15.721c41.165,0,76.436-6.54,91.052-15.721v-4.885c-14.616,9.183-49.887,15.72-91.052,15.72   C67.08,161.042,31.807,154.505,17.192,145.323z"
   fill="url(#path4831_1_)" />
	
		<linearGradient
   id="path4882_1_"
   gradientUnits="userSpaceOnUse"
   x1="-205.5283"
   y1="363.8901"
   x2="-133.6455"
   y2="363.8901"
   gradientTransform="matrix(2.7333 0 0 2.5714 571.769 -830.8127)">
		<stop
   offset="0"
   style="stop-color:#729FCF"
   id="stop3098" />
		<stop
   offset="1"
   style="stop-color:#204A87"
   id="stop3100" />
	</linearGradient>
	<path
   id="path4882"
   d="M108.239,60.938C53.983,60.938,10,72.179,10,86.058v37.669   c0,13.878,43.983,25.125,98.24,25.125c54.254,0,98.238-11.247,98.238-25.125V86.058C206.473,72.179,162.493,60.938,108.239,60.938z   "
   fill="url(#path4882_1_)" />
	
		<linearGradient
   id="path4884_1_"
   gradientUnits="userSpaceOnUse"
   x1="212.0439"
   y1="728.0874"
   x2="408.5234"
   y2="728.0874"
   gradientTransform="matrix(1 0 0 1 -202.04 -613.4414)">
		<stop
   offset="0"
   style="stop-color:#CBDBED"
   id="stop3104" />
		<stop
   offset="1"
   style="stop-color:#204A87"
   id="stop3106" />
	</linearGradient>
	<path
   id="path4884"
   nodetypes="cccscccsc"
   d="M10.75,80.459   c-0.496,1.024-0.746,2.146-0.746,3.205v39.987c0,13.879,43.983,25.183,98.239,25.183c54.258,0,98.24-11.304,98.24-25.183V83.664   c0-1.068-0.253-2.18-0.749-3.205c-6.041,12.39-47.393,21.977-97.491,21.977C58.146,102.436,16.794,92.849,10.75,80.459z"
   fill="url(#path4884_1_)" />
	
		<linearGradient
   id="path4886_1_"
   gradientUnits="userSpaceOnUse"
   x1="214.4404"
   y1="717.3198"
   x2="406.127"
   y2="717.3198"
   gradientTransform="matrix(1 0 0 1 -202.04 -612.4414)">
		<stop
   offset="0"
   style="stop-color:#FFFFFF;stop-opacity:0.6"
   id="stop3110" />
		<stop
   offset="1"
   style="stop-color:#FFFFFF;stop-opacity:0.2078"
   id="stop3112" />
	</linearGradient>
	<path
   id="path4886"
   nodetypes="cssccsssssccssccssccsssssccssc"
   d="M108.243,63.365   c-26.951,0-51.26,2.857-68.739,7.326c-8.736,2.237-15.886,4.678-20.515,7.478c-4.628,2.795-6.589,5.667-6.589,7.936v37.546   c0,2.271,1.96,5.141,6.589,7.937c4.628,2.799,11.779,5.241,20.515,7.479c17.475,4.467,41.789,7.326,68.739,7.326   c26.946,0,51.264-2.858,68.739-7.326c8.735-2.237,15.887-4.679,20.517-7.479c4.627-2.796,6.588-5.666,6.588-7.937V86.105   c0-2.269-1.961-5.141-6.588-7.936c-4.63-2.8-11.781-5.241-20.517-7.478C159.507,66.222,135.189,63.365,108.243,63.365z    M108.243,68.249c26.549,0,50.548,2.375,67.39,6.716c8.424,2.165,14.939,4.626,18.87,7.02c3.931,2.403,4.792,4.101,4.792,3.974   v37.85c0-0.129-0.861,1.569-4.792,3.973c-3.931,2.395-10.446,4.845-18.87,7.021c-16.847,4.338-40.841,6.715-67.394,6.715   c-26.554,0-50.548-2.376-67.393-6.715c-8.419-2.167-14.938-4.627-18.871-7.021c-3.934-2.404-4.793-4.102-4.793-3.973v-37.85   c0,0.127,0.859-1.57,4.793-3.974c3.933-2.394,10.447-4.846,18.871-7.02C57.696,70.624,81.695,68.249,108.243,68.249z"
   fill="url(#path4886_1_)" />
	<path
   id="path4888"
   d="M108.239,60.938C53.983,60.938,10,72.179,10,86.058   v37.669c0,13.878,43.983,25.125,98.24,25.125c54.254,0,98.238-11.247,98.238-25.125V86.058   C206.473,72.179,162.493,60.938,108.239,60.938z"
   stroke-width="0.3772"
   stroke="#193965"
   fill="none" />
	
		<linearGradient
   id="path4892_1_"
   gradientUnits="userSpaceOnUse"
   x1="219.2324"
   y1="717.4673"
   x2="310.2837"
   y2="717.4673"
   gradientTransform="matrix(1 0 0 1 -202.04 -620.4395)">
		<stop
   offset="0"
   style="stop-color:#FFFFFF;stop-opacity:0.8"
   id="stop3117" />
		<stop
   offset="1"
   style="stop-color:#FFFFFF;stop-opacity:0"
   id="stop3119" />
	</linearGradient>
	<path
   id="path4892"
   nodetypes="ccsccsc"
   d="M17.192,86.726v4.884   c14.615,9.18,49.887,15.72,91.051,15.72c41.165,0,76.436-6.54,91.052-15.72v-4.884c-14.616,9.181-49.887,15.72-91.052,15.72   C67.08,102.446,31.807,95.907,17.192,86.726z"
   fill="url(#path4892_1_)" />
	
		<linearGradient
   id="path4912_1_"
   gradientUnits="userSpaceOnUse"
   x1="-205.5283"
   y1="345.7632"
   x2="-133.6455"
   y2="345.7632"
   gradientTransform="matrix(2.7333 0 0 2.5714 571.769 -842.8127)">
		<stop
   offset="0"
   style="stop-color:#729FCF"
   id="stop3123" />
		<stop
   offset="1"
   style="stop-color:#204A87"
   id="stop3125" />
	</linearGradient>
	<path
   id="path4912"
   d="M108.239,2.325C53.983,2.325,10,13.572,10,27.441V65.12   c0,13.87,43.983,25.121,98.24,25.121c54.254,0,98.238-11.251,98.238-25.121V27.441C206.473,13.572,162.493,2.325,108.239,2.325z"
   fill="url(#path4912_1_)" />
	
		<linearGradient
   id="path4914_1_"
   gradientUnits="userSpaceOnUse"
   x1="212.0439"
   y1="681.4868"
   x2="408.5234"
   y2="681.4868"
   gradientTransform="matrix(1 0 0 1 -202.04 -625.4395)">
		<stop
   offset="0"
   style="stop-color:#CBDBED"
   id="stop3129" />
		<stop
   offset="1"
   style="stop-color:#204A87"
   id="stop3131" />
	</linearGradient>
	<path
   id="path4914"
   nodetypes="cccscccsc"
   d="M10.75,21.86   c-0.496,1.026-0.746,2.138-0.746,3.206v39.988c0,13.878,43.983,25.182,98.239,25.182c54.258,0,98.24-11.303,98.24-25.182V25.066   c0-1.068-0.253-2.179-0.749-3.206c-6.041,12.392-47.393,21.978-97.491,21.978C58.146,43.838,16.794,34.252,10.75,21.86z"
   fill="url(#path4914_1_)" />
	
		<linearGradient
   id="path4916_1_"
   gradientUnits="userSpaceOnUse"
   x1="214.4404"
   y1="670.7192"
   x2="406.127"
   y2="670.7192"
   gradientTransform="matrix(1 0 0 1 -202.04 -624.4395)">
		<stop
   offset="0"
   style="stop-color:#FFFFFF;stop-opacity:0.6"
   id="stop3135" />
		<stop
   offset="1"
   style="stop-color:#FFFFFF;stop-opacity:0.2078"
   id="stop3137" />
	</linearGradient>
	<path
   id="path4916"
   nodetypes="cssccsssssccssccssccsssssccssc"
   d="M108.243,4.768   c-26.951,0-51.26,2.856-68.739,7.326c-8.736,2.236-15.886,4.679-20.515,7.479c-4.628,2.795-6.589,5.666-6.589,7.936v37.546   c0,2.27,1.96,5.142,6.589,7.936c4.628,2.799,11.779,5.241,20.515,7.478c17.475,4.47,41.789,7.326,68.739,7.326   c26.946,0,51.264-2.856,68.739-7.326c8.735-2.237,15.887-4.679,20.517-7.478c4.627-2.794,6.588-5.667,6.588-7.936V27.508   c0-2.27-1.961-5.141-6.588-7.936c-4.63-2.799-11.781-5.247-20.517-7.479C159.507,7.624,135.189,4.768,108.243,4.768z    M108.243,9.651c26.549,0,50.548,2.375,67.39,6.715c8.424,2.165,14.939,4.627,18.87,7.021s4.792,4.102,4.792,3.968v37.851   c0-0.125-0.861,1.573-4.792,3.968c-3.931,2.404-10.446,4.855-18.87,7.025c-16.842,4.336-40.841,6.711-67.39,6.711   c-26.548,0-50.547-2.375-67.393-6.716c-8.418-2.165-14.933-4.627-18.866-7.02c-3.934-2.395-4.792-4.102-4.792-3.968V27.355   c0,0.134,0.858-1.574,4.792-3.968c3.933-2.404,10.448-4.856,18.872-7.025C57.696,12.027,81.695,9.651,108.243,9.651z"
   fill="url(#path4916_1_)" />
	<path
   id="path4918"
   d="M108.239,2.325C53.983,2.325,10,13.572,10,27.441V65.12   c0,13.87,43.983,25.121,98.24,25.121c54.254,0,98.238-11.251,98.238-25.121V27.441C206.473,13.572,162.493,2.325,108.239,2.325z"
   stroke-width="0.3772"
   stroke="#193965"
   fill="none" />
	
		<linearGradient
   id="path4922_1_"
   gradientUnits="userSpaceOnUse"
   x1="219.2324"
   y1="670.8589"
   x2="310.2837"
   y2="670.8589"
   gradientTransform="matrix(1 0 0 1 -202.04 -632.4395)">
		<stop
   offset="0"
   style="stop-color:#FFFFFF;stop-opacity:0.8"
   id="stop3142" />
		<stop
   offset="1"
   style="stop-color:#FFFFFF;stop-opacity:0"
   id="stop3144" />
	</linearGradient>
	<path
   id="path4922"
   nodetypes="ccsccsc"
   d="M17.192,28.118v4.885   c14.615,9.18,49.887,15.72,91.051,15.72c41.165,0,76.436-6.534,91.052-15.72v-4.885c-14.616,9.183-49.887,15.72-91.052,15.72   C67.08,43.838,31.807,37.305,17.192,28.118z"
   fill="url(#path4922_1_)" />
</g>
<g
   transform="matrix(0.39857238,0,0,0.39857238,95.309729,99.321902)"
   id="layer1"><path
     inkscape:connector-curvature="0"
     d="m 356,511.86218 a 82,80 0 1 1 -164,0 82,80 0 1 1 164,0 z"
     transform="matrix(1.36884,0,0,1.40306,-249.906,-592.96)"
     style="fill:#d3d7cf;fill-opacity:1;fill-rule:evenodd;stroke:#a40000;stroke-width:17.48716927;stroke-linecap:round;stroke-linejoin:round;stroke-miterlimit:4;stroke-opacity:1;stroke-dasharray:none;stroke-dashoffset:0"
     id="path20271" /><path
     inkscape:connector-curvature="0"
     d="m 346.5,510.36218 a 73,73 0 1 1 -146,0 73,73 0 1 1 146,0 z"
     transform="matrix(1.7127,0,0,1.7127,-343.781,-749.098)"
     style="fill:url(#linearGradient22177);fill-opacity:1;fill-rule:evenodd;stroke:none"
     id="path20273" /><path
     inkscape:connector-curvature="0"
     d="m 190.49082,185.05052 -44.33891,-62.6799 42.55823,-61.611504 -30.80575,0 -26.53212,40.065284 -28.49087,-40.243352 -30.271542,0.178068 42.914372,62.501834 -46.47573,61.78957 30.627681,0 31.518019,-42.02403 28.13473,42.02403 31.16189,0"
     transform="scale(0.972047,1.02876)"
     style="font-size:178.06791687px;font-style:normal;font-weight:normal;fill:#a40000;fill-opacity:1;stroke:none;font-family:Baekmuk Headline"
     id="text20299" /></g></svg>